<svg width="227" height="100" viewBox="0 0 227 100" fill="none" xmlns="http://www.w3.org/2000/svg">
<g clip-path="url(#clip0_1025_18)">
<rect width="227" height="100" fill="white"/>
<rect x="43" y="18" width="38" height="63" fill="white" stroke="#00391F" stroke-width="2"/>
<line x1="42" y1="32" x2="82" y2="32" stroke="#00391F" stroke-width="2"/>
<line x1="42" y1="47" x2="82" y2="47" stroke="#00391F" stroke-width="2"/>
<line x1="42" y1="63" x2="82" y2="63" stroke="#00391F" stroke-width="2"/>
<line x1="42" y1="53" x2="82" y2="53" stroke="#00391F" stroke-width="2"/>
<line x1="67" y1="17" x2="67" y2="48" stroke="#00391F" stroke-width="2"/>
<line x1="74" y1="33" x2="74" y2="48" stroke="#00391F" stroke-width="2"/>
<line x1="55" y1="17" x2="55" y2="33" stroke="#00391F" stroke-width="2"/>
<line x1="72" y1="28" x2="75" y2="28" stroke="#00391F" stroke-width="2"/>
<line x1="48" y1="39" x2="48" y2="42" stroke="#00391F" stroke-width="2"/>
<line x1="75" y1="70" x2="75" y2="73" stroke="#00391F" stroke-width="2"/>
<line x1="52" y1="25" x2="52" y2="27" stroke="#00391F" stroke-width="2"/>
<line x1="58" y1="25" x2="58" y2="27" stroke="#00391F" stroke-width="2"/>
<line x1="41" y1="63" x2="74" y2="63" stroke="white" stroke-width="2"/>
<line x1="41" y1="53" x2="74" y2="53" stroke="white" stroke-width="2"/>
<line x1="43" y1="50" x2="43" y2="70" stroke="white" stroke-width="2"/>
<line x1="41" y1="81" x2="74" y2="81" stroke="white" stroke-width="2"/>
<mask id="path-18-inside-1_1025_18" fill="white">
<path d="M18 57C18 54.2386 20.2386 52 23 52H67C69.7614 52 72 54.2386 72 57V82H18V57Z"/>
</mask>
<path d="M18 57C18 54.2386 20.2386 52 23 52H67C69.7614 52 72 54.2386 72 57V82H18V57Z" fill="white"/>
<path d="M16 57C16 53.134 19.134 50 23 50H67C70.866 50 74 53.134 74 57H70C70 55.3431 68.6569 54 67 54H23C21.3431 54 20 55.3431 20 57H16ZM72 82H18H72ZM16 82V57C16 53.134 19.134 50 23 50V54C21.3431 54 20 55.3431 20 57V82H16ZM67 50C70.866 50 74 53.134 74 57V82H70V57C70 55.3431 68.6569 54 67 54V50Z" fill="#00391F" mask="url(#path-18-inside-1_1025_18)"/>
<line x1="26" y1="78.35" x2="64" y2="78.35" stroke="#00391F" stroke-width="1.3"/>
<path d="M51 69H64V75H46V74C46 71.2386 48.2386 69 51 69Z" fill="white" stroke="#00391F" stroke-width="2"/>
<path d="M39 69H26V75H44V74C44 71.2386 41.7614 69 39 69Z" fill="white" stroke="#00391F" stroke-width="2"/>
<path d="M65 68V81H71V63H70C67.2386 63 65 65.2386 65 68Z" fill="white" stroke="#00391F" stroke-width="2"/>
<path d="M25 68V81H19V63H20C22.7614 63 25 65.2386 25 68Z" fill="white" stroke="#00391F" stroke-width="2"/>
<rect x="61" y="67" width="8" height="8" rx="2" transform="rotate(180 61 67)" fill="white" stroke="#00391F" stroke-width="2"/>
<rect x="37" y="67" width="8" height="8" rx="2" transform="rotate(180 37 67)" fill="white" stroke="#00391F" stroke-width="2"/>
<path d="M35.0176 28.2578L35.1299 28.5342L35.4121 28.6299L37.9766 29.5L35.4121 30.3701L35.1299 30.4658L35.0176 30.7422L34 33.2637L32.9824 30.7422L32.8701 30.4658L32.5879 30.3701L30.0225 29.5L32.5879 28.6299L32.8701 28.5342L32.9824 28.2578L34 25.7354L35.0176 28.2578Z" fill="white" stroke="#00391F" stroke-width="1.3"/>
<path d="M28.0176 40.2578L28.1299 40.5342L28.4121 40.6299L30.9766 41.5L28.4121 42.3701L28.1299 42.4658L28.0176 42.7422L27 45.2637L25.9824 42.7422L25.8701 42.4658L25.5879 42.3701L23.0225 41.5L25.5879 40.6299L25.8701 40.5342L25.9824 40.2578L27 37.7354L28.0176 40.2578Z" fill="white" stroke="#00391F" stroke-width="1.3"/>
<line y1="5" x2="100" y2="5" stroke="#00391F" stroke-width="10"/>
<line y1="95" x2="100" y2="95" stroke="#00391F" stroke-width="10"/>
<line x1="5" x2="5" y2="100" stroke="#00391F" stroke-width="10"/>
<line x1="95" x2="95" y2="20" stroke="#00391F" stroke-width="10"/>
<line x1="95" y1="79" x2="95" y2="99" stroke="#00391F" stroke-width="10"/>
<path d="M90.08 29.8H100.324V33.154H93.798V48H90.08V29.8ZM119.789 29.8L111.235 48H107.361L109.779 42.514L103.825 29.8H108.037L112.561 41.084L110.819 41.006L115.863 29.8H119.789ZM124.172 29.8H127.89V48H124.172V29.8ZM126.434 32.946V29.8H130.048C131.487 29.8 132.709 30.034 133.714 30.502C134.737 30.97 135.517 31.6373 136.054 32.504C136.591 33.3707 136.86 34.402 136.86 35.598C136.86 36.7767 136.591 37.808 136.054 38.692C135.517 39.5587 134.737 40.226 133.714 40.694C132.709 41.162 131.487 41.396 130.048 41.396H126.434V38.25H130.048C131.036 38.25 131.816 38.0247 132.388 37.574C132.96 37.1233 133.246 36.4647 133.246 35.598C133.246 34.714 132.96 34.0553 132.388 33.622C131.816 33.1713 131.036 32.946 130.048 32.946H126.434ZM139.729 33.154V29.8H153.249V33.154H148.335V48H144.617V33.154H139.729ZM165.268 48H156.818V45.764L159.08 44.724V32.712L156.818 31.672V29.436H165.268V31.672L163.006 32.712V44.724L165.268 45.764V48ZM173.449 38.77V37.08H176.387C176.925 37.08 177.393 36.9933 177.791 36.82C178.19 36.6467 178.493 36.3953 178.701 36.066C178.927 35.7367 179.039 35.3467 179.039 34.896C179.039 34.2027 178.797 33.674 178.311 33.31C177.843 32.946 177.202 32.764 176.387 32.764H174.385V45.036H176.777C177.401 45.036 177.965 44.9493 178.467 44.776C178.97 44.5853 179.36 44.2907 179.637 43.892C179.932 43.4933 180.079 42.982 180.079 42.358C180.079 41.9073 179.993 41.526 179.819 41.214C179.663 40.8847 179.429 40.616 179.117 40.408C178.823 40.1827 178.476 40.0267 178.077 39.94C177.679 39.836 177.245 39.784 176.777 39.784H173.449V37.756H177.115C177.999 37.756 178.84 37.8513 179.637 38.042C180.452 38.2327 181.18 38.536 181.821 38.952C182.463 39.3507 182.965 39.8707 183.329 40.512C183.711 41.1533 183.901 41.9247 183.901 42.826C183.901 44.022 183.615 45.0013 183.043 45.764C182.489 46.5267 181.7 47.09 180.677 47.454C179.655 47.818 178.467 48 177.115 48H170.667V29.8H176.725C177.939 29.8 179.005 29.9733 179.923 30.32C180.842 30.6493 181.561 31.152 182.081 31.828C182.601 32.504 182.861 33.362 182.861 34.402C182.861 35.3207 182.601 36.1093 182.081 36.768C181.561 37.4267 180.842 37.9293 179.923 38.276C179.005 38.6053 177.939 38.77 176.725 38.77H173.449ZM190.892 39.992V36.638H204.256V39.992H190.892ZM201.89 29.8H205.608V48H201.89V29.8ZM189.67 29.8H193.388V48H189.67V29.8ZM220.159 39.524L214.699 48H210.305L216.233 39.524H220.159ZM224.293 29.8V48H220.575V29.8H224.293ZM222.031 32.972H218.417C217.776 32.972 217.213 33.0847 216.727 33.31C216.242 33.518 215.869 33.83 215.609 34.246C215.349 34.6447 215.219 35.13 215.219 35.702C215.219 36.274 215.349 36.768 215.609 37.184C215.869 37.5827 216.242 37.8947 216.727 38.12C217.213 38.328 217.776 38.432 218.417 38.432H222.031V41.396H218.183C216.762 41.396 215.54 41.1533 214.517 40.668C213.512 40.1827 212.741 39.5067 212.203 38.64C211.666 37.756 211.397 36.742 211.397 35.598C211.397 34.4367 211.666 33.4227 212.203 32.556C212.741 31.6893 213.512 31.0133 214.517 30.528C215.54 30.0427 216.762 29.8 218.183 29.8H222.031V32.972ZM93.98 61.782L92.81 72H88.936L91.64 52.89L99.258 64.642L106.876 52.89L109.58 72H105.706L104.536 61.782L99.258 70.31L93.98 61.782ZM117.489 72V68.854H126.667V72H117.489ZM117.489 56.946V53.8H126.667V56.946H117.489ZM117.489 63.888V60.794H126.147V63.888H117.489ZM115.097 53.8H118.685V72H115.097V53.8ZM134.258 63.888V60.794H140.212C141.391 60.794 142.439 61.028 143.358 61.496C144.294 61.9467 145.031 62.5967 145.568 63.446C146.123 64.278 146.4 65.2573 146.4 66.384C146.4 67.4933 146.123 68.4727 145.568 69.322C145.031 70.1713 144.294 70.83 143.358 71.298C142.439 71.766 141.391 72 140.212 72H134.258V68.854H139.536C140.16 68.854 140.706 68.7673 141.174 68.594C141.642 68.4033 141.997 68.126 142.24 67.762C142.5 67.398 142.63 66.9387 142.63 66.384C142.63 65.812 142.5 65.344 142.24 64.98C141.997 64.616 141.642 64.3473 141.174 64.174C140.706 63.9833 140.16 63.888 139.536 63.888H134.258ZM133.036 53.8H145.022V56.946H136.806V72H133.036V53.8ZM167.064 53.8V72H163.294V57.154H156.638V64.746C156.638 66.2713 156.413 67.58 155.962 68.672C155.529 69.7467 154.844 70.57 153.908 71.142C152.972 71.714 151.768 72 150.294 72V68.854C150.71 68.854 151.083 68.7587 151.412 68.568C151.742 68.3773 152.019 68.1 152.244 67.736C152.47 67.372 152.643 66.9387 152.764 66.436C152.886 65.9333 152.946 65.3787 152.946 64.772V53.8H167.064ZM181.036 72H172.586V69.764L174.848 68.724V56.712L172.586 55.672V53.436H181.036V55.672L178.774 56.712V68.724L181.036 69.764V72ZM189.217 62.77V61.08H192.155C192.692 61.08 193.16 60.9933 193.559 60.82C193.958 60.6467 194.261 60.3953 194.469 60.066C194.694 59.7367 194.807 59.3467 194.807 58.896C194.807 58.2027 194.564 57.674 194.079 57.31C193.611 56.946 192.97 56.764 192.155 56.764H190.153V69.036H192.545C193.169 69.036 193.732 68.9493 194.235 68.776C194.738 68.5853 195.128 68.2907 195.405 67.892C195.7 67.4933 195.847 66.982 195.847 66.358C195.847 65.9073 195.76 65.526 195.587 65.214C195.431 64.8847 195.197 64.616 194.885 64.408C194.59 64.1827 194.244 64.0267 193.845 63.94C193.446 63.836 193.013 63.784 192.545 63.784H189.217V61.756H192.883C193.767 61.756 194.608 61.8513 195.405 62.042C196.22 62.2327 196.948 62.536 197.589 62.952C198.23 63.3507 198.733 63.8707 199.097 64.512C199.478 65.1533 199.669 65.9247 199.669 66.826C199.669 68.022 199.383 69.0013 198.811 69.764C198.256 70.5267 197.468 71.09 196.445 71.454C195.422 71.818 194.235 72 192.883 72H186.435V53.8H192.493C193.706 53.8 194.772 53.9733 195.691 54.32C196.61 54.6493 197.329 55.152 197.849 55.828C198.369 56.504 198.629 57.362 198.629 58.402C198.629 59.3207 198.369 60.1093 197.849 60.768C197.329 61.4267 196.61 61.9293 195.691 62.276C194.772 62.6053 193.706 62.77 192.493 62.77H189.217Z" fill="#00391F"/>
<path d="M108.176 84.48H107.184L108.752 80.8H109.344L108.176 84.48ZM110.992 84.48H110L111.568 80.8H112.16L110.992 84.48ZM115.779 86.4C115.779 87.328 115.976 88.16 116.371 88.896C116.776 89.632 117.326 90.2133 118.019 90.64C118.723 91.056 119.523 91.264 120.419 91.264C121.315 91.264 122.11 91.056 122.803 90.64C123.507 90.2133 124.056 89.632 124.451 88.896C124.846 88.16 125.043 87.328 125.043 86.4C125.043 85.4613 124.846 84.6293 124.451 83.904C124.056 83.168 123.507 82.592 122.803 82.176C122.11 81.7493 121.315 81.536 120.419 81.536C119.523 81.536 118.723 81.7493 118.019 82.176C117.326 82.592 116.776 83.168 116.371 83.904C115.976 84.6293 115.779 85.4613 115.779 86.4ZM114.851 86.4C114.851 85.5787 114.99 84.8213 115.267 84.128C115.544 83.424 115.934 82.816 116.435 82.304C116.936 81.7813 117.523 81.376 118.195 81.088C118.878 80.8 119.619 80.656 120.419 80.656C121.219 80.656 121.955 80.8 122.627 81.088C123.31 81.376 123.902 81.7813 124.403 82.304C124.904 82.816 125.294 83.424 125.571 84.128C125.848 84.8213 125.987 85.5787 125.987 86.4C125.987 87.2213 125.848 87.984 125.571 88.688C125.294 89.3813 124.904 89.9893 124.403 90.512C123.902 91.024 123.31 91.424 122.627 91.712C121.955 92 121.219 92.144 120.419 92.144C119.619 92.144 118.878 92 118.195 91.712C117.523 91.424 116.936 91.024 116.435 90.512C115.934 89.9893 115.544 89.3813 115.267 88.688C114.99 87.984 114.851 87.2213 114.851 86.4ZM129.583 91.616C129.583 91.4453 129.642 91.3013 129.759 91.184C129.876 91.0667 130.015 91.008 130.175 91.008C130.346 91.008 130.484 91.0667 130.591 91.184C130.708 91.3013 130.767 91.4453 130.767 91.616C130.767 91.776 130.708 91.9147 130.591 92.032C130.484 92.1493 130.346 92.208 130.175 92.208C130.015 92.208 129.876 92.1493 129.759 92.032C129.642 91.9147 129.583 91.776 129.583 91.616ZM140.37 82.288L136.754 91.648H135.81L140.37 80.24L144.93 91.648H143.986L140.37 82.288ZM145.266 92H135.474V93.76H134.69V91.168H146.05V93.76H145.266V92ZM150.533 91.616C150.533 91.4453 150.592 91.3013 150.709 91.184C150.826 91.0667 150.965 91.008 151.125 91.008C151.296 91.008 151.434 91.0667 151.541 91.184C151.658 91.3013 151.717 91.4453 151.717 91.616C151.717 91.776 151.658 91.9147 151.541 92.032C151.434 92.1493 151.296 92.208 151.125 92.208C150.965 92.208 150.826 92.1493 150.709 92.032C150.592 91.9147 150.533 91.776 150.533 91.616ZM157.24 88.24L157.528 87.408H162.696L162.984 88.24H157.24ZM160.088 82.4L157.912 87.696L157.816 87.888L156.136 92H155.144L160.088 80.368L165.032 92H164.04L162.376 87.952L162.296 87.744L160.088 82.4ZM169.327 91.616C169.327 91.4453 169.386 91.3013 169.503 91.184C169.62 91.0667 169.759 91.008 169.919 91.008C170.09 91.008 170.228 91.0667 170.335 91.184C170.452 91.3013 170.511 91.4453 170.511 91.616C170.511 91.776 170.452 91.9147 170.335 92.032C170.228 92.1493 170.09 92.208 169.919 92.208C169.759 92.208 169.62 92.1493 169.503 92.032C169.386 91.9147 169.327 91.776 169.327 91.616ZM175.826 80.8H176.818L175.25 84.48H174.658L175.826 80.8ZM178.642 80.8H179.634L178.066 84.48H177.474L178.642 80.8Z" fill="#00391F"/>
</g>
<defs>
<clipPath id="clip0_1025_18">
<rect width="227" height="100" fill="white"/>
</clipPath>
</defs>
</svg>
